<?xml version="1.0" standalone="no"?>
<!DOCTYPE svg PUBLIC "-//W3C//DTD SVG 20010904//EN"
 "http://www.w3.org/TR/2001/REC-SVG-20010904/DTD/svg10.dtd">
<svg version="1.0" xmlns="http://www.w3.org/2000/svg"
 x="0px" y="0px" viewBox="0 0 2000.0000 2000.0000"
 preserveAspectRatio="xMidYMid meet">

<g transform="translate(0.000000,2000.000000) scale(0.100000,-0.100000)"
fill="#000000" stroke="none">
<path fill="#ff4057" d="M9830 19080 c-14 -4 -153 -49 -310 -100 -576 -186 -890 -303 -1165
-433 -144 -68 -363 -190 -438 -244 -27 -19 -52 -32 -55 -28 -3 3 1 70 10 150
15 131 13 192 -6 223 -9 16 -54 20 -99 10 -50 -11 -100 -48 -312 -229 -187
-159 -284 -230 -380 -279 -77 -39 -76 -39 -347 -25 -119 6 -150 5 -245 -15
-342 -69 -661 -316 -812 -629 -21 -43 -40 -88 -43 -99 -6 -22 -33 -28 -173
-37 -55 -4 -152 -1 -250 9 -271 26 -355 29 -435 17 -85 -13 -197 -62 -268
-117 -26 -19 -85 -65 -132 -100 -363 -277 -594 -472 -1216 -1026 -221 -196
-418 -376 -438 -400 -48 -55 -78 -110 -121 -219 -19 -49 -51 -130 -71 -180
-50 -128 -91 -192 -190 -303 -130 -146 -321 -315 -733 -649 -444 -359 -710
-638 -884 -922 -117 -193 -233 -454 -307 -694 -87 -285 -149 -575 -251 -1181
-38 -228 -88 -507 -110 -620 -23 -113 -42 -209 -42 -215 0 -5 42 -79 92 -164
278 -464 469 -866 601 -1261 97 -291 187 -681 177 -768 -10 -87 -88 -132 -194
-112 -31 5 -61 10 -66 10 -16 0 -1 -482 17 -570 33 -159 56 -208 573 -1245
403 -810 529 -1074 683 -1440 94 -223 230 -574 230 -595 0 -5 16 -10 35 -10
60 0 144 -41 210 -102 85 -79 119 -147 155 -310 71 -325 161 -551 305 -768
177 -267 408 -453 683 -551 206 -72 192 -71 607 -79 408 -8 429 -11 587 -69
80 -30 185 -92 273 -162 72 -57 260 -150 400 -197 188 -64 365 -94 576 -98
l176 -2 294 -137 c162 -75 332 -153 379 -175 265 -119 333 -151 510 -241 173
-88 368 -194 470 -257 61 -38 145 -27 196 26 32 33 36 35 51 19 14 -13 16 -37
15 -140 l-2 -123 108 13 c117 14 648 65 887 85 208 18 1106 18 1275 0 227 -24
533 -74 687 -112 147 -36 155 -37 205 -23 337 88 606 40 1060 -187 156 -79
157 -79 256 -86 55 -4 111 -4 125 0 59 14 71 59 37 134 l-19 42 69 35 c90 45
283 98 490 135 91 15 197 34 237 41 116 21 134 12 288 -146 127 -131 182 -171
257 -189 l27 -6 -2 137 c-2 198 24 266 118 313 49 25 54 25 271 23 l221 -1 -1
156 c-1 193 5 208 126 308 45 37 161 145 258 239 204 200 270 260 365 336 79
63 250 169 273 169 8 0 83 -68 167 -151 l153 -151 7 31 c10 45 -12 136 -53
221 -30 62 -56 95 -148 186 -61 61 -115 120 -118 132 -13 40 9 59 102 87 48
14 132 39 187 56 109 33 208 45 277 35 25 -4 80 -27 123 -51 43 -25 80 -45 81
-45 1 0 -13 26 -32 57 -45 75 -45 111 1 152 79 69 128 81 361 90 186 6 193 7
250 36 104 54 167 169 181 331 l6 75 171 182 c234 250 348 375 442 487 494
587 924 1292 1288 2113 54 121 96 221 94 223 -2 2 -36 -18 -75 -45 -258 -174
-443 -352 -633 -606 -117 -157 -164 -195 -240 -195 -29 0 -62 9 -94 26 -26 14
-49 24 -50 22 -1 -2 -34 -93 -72 -203 -38 -109 -70 -193 -71 -185 -2 8 3 80
10 160 8 80 12 147 11 149 -2 2 -43 -24 -91 -57 -99 -69 -226 -156 -488 -337
-187 -129 -1135 -764 -1310 -877 -55 -35 -170 -109 -255 -163 -85 -54 -177
-113 -205 -130 -176 -115 -787 -485 -1050 -638 -38 -22 -101 -59 -140 -82
-147 -88 -252 -145 -315 -171 -77 -32 -180 -42 -236 -24 -55 18 -114 69 -149
129 -16 28 -33 51 -36 51 -4 0 -59 -41 -123 -91 -64 -49 -132 -97 -151 -105
-46 -19 -98 -18 -124 4 -24 18 -43 83 -36 120 3 12 7 32 10 45 l4 22 -162 0
c-197 0 -201 -2 -255 -113 -32 -64 -42 -77 -62 -77 -17 0 -31 10 -45 33 -35
58 -71 96 -86 90 -10 -4 -22 -50 -38 -149 -13 -79 -27 -150 -31 -158 -4 -7
-10 10 -13 39 -10 83 -44 107 -107 75 -34 -17 -110 -120 -110 -147 0 -29 -13
-16 -91 89 -80 108 -144 180 -202 226 l-39 30 20 -39 c47 -93 67 -219 38 -243
-18 -15 -70 9 -86 39 -14 26 -30 17 -30 -17 0 -15 -5 -66 -11 -115 l-12 -88
-56 -30 c-31 -17 -95 -66 -144 -110 -126 -115 -135 -118 -350 -135 -100 -8
-234 -20 -297 -26 -148 -14 -556 -83 -685 -115 -121 -31 -138 -31 -240 -5
-156 39 -562 117 -980 186 -313 52 -820 107 -1335 145 -483 36 -799 105 -1200
262 -134 52 -590 276 -590 289 0 4 16 13 35 19 109 36 208 143 209 228 1 26
-3 56 -7 66 -7 18 -9 17 -27 -11 -25 -41 -75 -77 -133 -97 -44 -15 -228 -54
-333 -71 l-42 -6 -134 118 c-248 218 -553 474 -1088 914 -41 34 -106 87 -145
119 -38 33 -153 128 -255 212 -102 84 -230 192 -285 238 -55 47 -143 121 -195
165 -163 138 -538 473 -705 629 -221 207 -534 523 -589 595 -114 148 -231 367
-411 766 -140 312 -214 468 -261 553 l-35 63 -21 -26 c-25 -32 -88 -65 -124
-65 -59 0 -131 79 -173 188 -27 67 -26 105 0 160 17 34 32 49 66 64 49 22 87
18 142 -13 18 -11 36 -18 38 -15 3 2 -41 287 -96 633 -56 345 -101 658 -101
694 0 109 28 181 156 405 35 61 73 138 85 170 14 43 57 362 155 1149 155 1253
173 1361 294 1725 304 910 866 1655 1924 2545 65 55 135 114 156 130 39 31
372 305 445 365 23 19 86 71 140 115 54 44 121 99 149 123 104 88 286 198 574
346 163 84 342 177 397 206 55 29 204 108 330 175 746 397 1139 576 1617 735
329 110 731 206 1048 249 296 41 711 60 1055 50 451 -13 613 29 693 179 43 81
55 171 47 355 -7 131 -9 148 -24 142 -41 -16 -110 -23 -157 -15 -70 11 -150
54 -264 140 -121 91 -197 133 -293 165 -85 27 -81 27 -117 15z m-8166 -11561
c50 -40 92 -112 252 -444 21 -44 62 -116 91 -159 29 -44 51 -81 50 -83 -10
-10 -182 81 -221 117 -60 55 -85 110 -96 211 -11 93 -46 179 -124 298 -25 38
-46 72 -46 75 0 15 70 4 94 -15z m-261 -13 c15 -16 139 -364 135 -378 -2 -5
-50 44 -107 109 -58 65 -117 128 -133 141 -34 28 -36 59 -7 96 34 44 86 58
112 32z" />
<path fill="#ff4057" d="M12920 18501 c-243 -6 -245 -6 -290 -33 -61 -35 -113 -89 -141 -146
-13 -26 -25 -49 -26 -50 -1 -2 -32 9 -70 25 l-68 28 -245 -1 c-188 -1 -259 -5
-307 -18 -140 -35 -239 -112 -290 -223 -23 -49 -25 -65 -21 -141 5 -104 30
-160 109 -247 185 -202 527 -370 902 -445 214 -42 271 -49 447 -56 l155 -7
170 -85 c167 -84 457 -238 605 -322 41 -23 100 -56 130 -72 157 -86 622 -362
870 -516 168 -104 341 -212 395 -247 28 -18 282 -180 565 -360 283 -180 538
-342 565 -360 98 -63 341 -213 375 -231 27 -15 56 -19 130 -18 83 0 108 5 198
37 57 20 109 41 116 46 19 16 176 81 195 81 16 0 18 -14 17 -157 0 -175 14
-270 66 -433 53 -164 215 -538 268 -616 75 -110 177 -194 385 -319 88 -53 210
-182 257 -272 61 -115 82 -207 82 -358 -1 -105 -6 -150 -27 -235 -14 -58 -34
-126 -45 -151 l-20 -45 75 -135 c90 -161 202 -334 292 -449 134 -173 354 -383
467 -446 86 -48 96 -67 104 -194 7 -113 21 -153 66 -189 57 -45 131 -15 217
87 l27 34 0 -34 c0 -18 -11 -116 -25 -218 -58 -422 -74 -659 -56 -830 11 -107
41 -264 48 -256 3 2 11 73 19 158 45 479 121 907 221 1253 32 112 110 333 147
418 19 42 12 45 -42 18 -45 -23 -94 -74 -155 -161 -54 -78 -96 -110 -148 -117
l-39 -6 0 219 c0 447 -32 773 -169 1724 -27 190 -53 372 -57 405 -8 66 59 -33
-689 1030 -132 187 -334 475 -450 640 -116 165 -319 453 -450 640 -132 187
-288 410 -348 495 -258 369 -740 773 -1312 1102 -133 76 -438 229 -555 278
-353 149 -638 248 -976 341 -163 45 -425 103 -534 118 -204 29 -522 35 -1130
22z"/>
<path fill="#ff4057" d="M6775 12625 c-831 -92 -1524 -394 -2005 -875 -156 -155 -237 -254
-355 -430 -244 -366 -378 -769 -405 -1218 -49 -831 272 -1519 966 -2068 22
-16 73 -53 114 -80 251 -168 504 -293 808 -399 561 -194 1137 -242 1747 -145
122 19 292 52 715 137 196 40 391 53 517 35 40 -6 81 -8 92 -5 15 4 75 112
222 402 111 218 242 473 290 568 98 189 107 227 62 244 -15 5 -43 7 -63 4 -31
-5 -42 -16 -95 -98 -264 -403 -701 -762 -1155 -949 -113 -46 -357 -111 -490
-129 -121 -17 -546 -17 -695 0 -295 33 -586 117 -841 241 -388 190 -712 494
-966 906 -278 451 -403 1006 -357 1585 51 642 291 1152 717 1522 338 293 789
476 1277 516 315 27 542 22 770 -14 198 -32 426 -110 610 -211 331 -181 585
-445 820 -854 43 -74 85 -141 93 -147 9 -7 37 -13 63 -13 87 0 79 -59 79 596
0 566 -1 584 -19 594 -28 15 -130 12 -205 -5 -75 -18 -102 -14 -266 40 -334
108 -852 206 -1325 250 -194 18 -554 18 -720 0z"/>
<path fill="#ff4057" d="M10050 12436 l0 -54 73 -7 c431 -39 666 -141 739 -323 l23 -57 3
-1970 c1 -1191 -1 -1997 -7 -2038 -20 -142 -84 -220 -249 -298 -132 -63 -291
-106 -444 -118 -64 -5 -121 -12 -127 -15 -18 -11 -14 -93 5 -100 21 -8 2352
-8 2382 0 20 6 23 12 20 53 l-3 46 -144 12 c-425 37 -620 169 -651 443 -16
135 -13 1729 3 1760 11 23 19 25 86 28 170 7 392 -90 611 -266 106 -85 246
-219 390 -371 80 -85 228 -240 330 -345 501 -519 705 -758 781 -920 34 -71 35
-87 10 -143 -40 -88 -156 -136 -406 -168 -71 -9 -137 -21 -147 -26 -24 -13
-26 -94 -2 -103 29 -11 2634 -7 2655 4 22 12 27 68 7 88 -7 7 -31 12 -54 12
-74 0 -454 69 -584 106 -199 56 -339 130 -505 264 -74 61 -130 122 -260 285
-373 468 -747 883 -1091 1211 -211 202 -304 285 -559 496 -228 188 -249 209
-240 237 4 12 70 83 148 159 443 428 680 705 997 1167 317 461 392 540 645
681 133 75 255 120 385 144 138 25 360 50 450 50 107 0 110 3 110 71 l0 59
-1190 0 -1190 0 0 -53 0 -54 133 -7 c226 -11 351 -51 414 -134 94 -124 66
-285 -92 -527 -58 -89 -395 -542 -565 -760 -393 -505 -968 -955 -1191 -933
-52 5 -69 49 -80 211 -12 188 -11 1656 1 1742 26 180 144 289 400 370 66 21
119 29 235 36 82 5 153 13 158 18 4 4 7 26 5 47 l-3 39 -1207 3 -1208 2 0 -54z"/>
</g>
</svg>
