<?xml version="1.0" encoding="utf-8"?>
<svg width="96" height="96" viewBox="0 0 96 96" class="css-1j8o68f" xmlns="http://www.w3.org/2000/svg">
  <defs id="SvgjsDefs1014">
    <linearGradient id="SvgjsLinearGradient1019">
      <stop id="SvgjsStop1020" stop-color="#7e1f2a" offset="0"/>
      <stop id="SvgjsStop1021" stop-color="#ff4057" offset="1"/>
    </linearGradient>
    <linearGradient gradientUnits="userSpaceOnUse" x1="94.999" y1="-13.375" x2="94.999" y2="120.375" id="gradient-0" gradientTransform="matrix(0.704019, 0.449938, -1.503143, 0.944055, 108.133441, -40.090742)">
      <stop offset="0" style="stop-color: rgb(25, 25, 25);"/>
      <stop offset="1" style="stop-color: rgba(0, 0, 0, 1)"/>
    </linearGradient>
  </defs>
  <g id="SvgjsG1015" featurekey="rootContainer" transform="matrix(0.454737, 0, 0, 0.717757, 4.800207, 9.600001)" fill="#111111">
    <rect xmlns="http://www.w3.org/2000/svg" width="211.111" height="133.75" rx="10" ry="10" style="fill-rule: nonzero; paint-order: fill; fill: url(#gradient-0);" y="-13.375" x="-10.556"/>
  </g>
  <g id="SvgjsG1016" featurekey="nameFeature-0" transform="matrix(1.254376, -0.000017, 0.000018, 1.257237, -16.22451, 15.865895)" fill="url(#SvgjsLinearGradient1019)" style="">
    <path d="M 48.56 20.6 L 39.92 20.6 C 39.48 17.4 36.88 16.28 33.68 16.28 C 28.2 16.28 25.56 20.12 25.56 25.4 C 25.56 30.52 27.76 34.84 33.44 34.84 C 36.64 34.84 39.56 33.72 39.84 30.2 L 48.72 30.2 C 48.36 38.72 41.32 40.76 32.6 40.76 C 23.96 40.76 16.92 36.36 16.92 25.6 C 16.92 14.76 23.64 10.36 33.96 10.36 C 41.32 10.36 48.44 12.96 48.56 20.6 Z M 54.36 40 L 54.36 11.12 L 62.76 11.12 L 62.76 23.88 L 74.44 11.12 L 84.56 11.12 L 71.92 24.08 L 85.48 40 L 74.6 40 L 62.84 25.12 L 62.76 25.12 L 62.76 40 L 54.36 40 Z"/>
  </g>
</svg>